<?xml version="1.0" standalone="no"?>
<!DOCTYPE svg PUBLIC "-//W3C//DTD SVG 20010904//EN"
 "http://www.w3.org/TR/2001/REC-SVG-20010904/DTD/svg10.dtd">
<svg version="1.0" xmlns="http://www.w3.org/2000/svg"
 width="1536.000000pt" height="1536.000000pt" viewBox="0 0 1536.000000 1536.000000"
 preserveAspectRatio="xMidYMid meet">

<g transform="translate(0.000000,1536.000000) scale(0.100000,-0.100000)"
fill="#000000" stroke="none">
<path d="M4226 11149 c4 -7 569 -815 1255 -1798 745 -1066 1245 -1790 1240
-1796 -24 -30 -2548 -3403 -2555 -3413 -6 -9 205 -12 979 -12 l986 0 775 1036
775 1036 62 -88 c35 -49 537 -767 1116 -1596 l1054 -1508 924 0 925 0 -16 24
c-9 14 -711 1020 -1561 2236 l-1546 2212 803 1071 c441 590 1042 1393 1335
1785 l533 712 -988 0 -987 -1 -823 -1100 c-453 -606 -826 -1098 -830 -1094 -4
3 -367 522 -808 1153 l-802 1147 -926 3 c-695 1 -925 -1 -920 -9z"/>
</g>
</svg>
